<svg width="261" height="70" viewBox="0 0 261 70" fill="none" xmlns="http://www.w3.org/2000/svg">
<path d="M74.4034 53V16.6364H87.1165C89.6496 16.6364 91.7389 17.0743 93.3842 17.9503C95.0296 18.8144 96.2547 19.9803 97.0597 21.4482C97.8646 22.9041 98.267 24.5199 98.267 26.2955C98.267 27.858 97.9889 29.1482 97.4325 30.1662C96.888 31.1842 96.166 31.9891 95.2663 32.581C94.3786 33.1728 93.4138 33.6108 92.3722 33.8949V34.25C93.4848 34.321 94.6035 34.7116 95.728 35.4219C96.8525 36.1321 97.7936 37.1501 98.5511 38.4759C99.3087 39.8016 99.6875 41.4233 99.6875 43.3409C99.6875 45.1638 99.2732 46.8033 98.4446 48.2592C97.616 49.7152 96.308 50.8693 94.5206 51.7216C92.7332 52.5739 90.4072 53 87.5426 53H74.4034ZM78.8068 49.0938H87.5426C90.419 49.0938 92.4609 48.5374 93.6683 47.4247C94.8875 46.3002 95.4972 44.9389 95.4972 43.3409C95.4972 42.1098 95.1835 40.9735 94.5561 39.9318C93.9287 38.8783 93.035 38.0379 91.875 37.4105C90.715 36.7713 89.3419 36.4517 87.7557 36.4517H78.8068V49.0938ZM78.8068 32.6165H86.9744C88.3002 32.6165 89.4957 32.3561 90.5611 31.8352C91.6383 31.3144 92.4905 30.5805 93.1179 29.6335C93.7571 28.6866 94.0767 27.5739 94.0767 26.2955C94.0767 24.6974 93.5204 23.3421 92.4077 22.2294C91.295 21.1049 89.5313 20.5426 87.1165 20.5426H78.8068V32.6165ZM114.38 53.6392C112.652 53.6392 111.084 53.3137 109.675 52.6626C108.266 51.9998 107.148 51.0469 106.319 49.804C105.491 48.5492 105.076 47.0341 105.076 45.2585C105.076 43.696 105.384 42.4295 106 41.4588C106.615 40.4763 107.438 39.7069 108.468 39.1506C109.498 38.5942 110.634 38.1799 111.877 37.9077C113.132 37.6236 114.392 37.3987 115.659 37.233C117.316 37.0199 118.659 36.8601 119.689 36.7536C120.731 36.6352 121.489 36.4399 121.962 36.1676C122.447 35.8954 122.69 35.4219 122.69 34.7472V34.6051C122.69 32.8532 122.211 31.492 121.252 30.5213C120.305 29.5507 118.867 29.0653 116.937 29.0653C114.937 29.0653 113.368 29.5033 112.232 30.3793C111.096 31.2552 110.297 32.1903 109.835 33.1847L105.858 31.7642C106.568 30.107 107.515 28.8168 108.699 27.8935C109.894 26.9583 111.196 26.3073 112.605 25.9403C114.025 25.5616 115.422 25.3722 116.795 25.3722C117.671 25.3722 118.677 25.4787 119.814 25.6918C120.962 25.893 122.069 26.3132 123.134 26.9524C124.211 27.5916 125.105 28.5563 125.815 29.8466C126.525 31.1368 126.88 32.8651 126.88 35.0312V53H122.69V49.3068H122.477C122.193 49.8987 121.719 50.532 121.056 51.2067C120.394 51.8814 119.512 52.4555 118.411 52.929C117.31 53.4025 115.967 53.6392 114.38 53.6392ZM115.02 49.875C116.677 49.875 118.074 49.5495 119.21 48.8984C120.358 48.2474 121.222 47.407 121.802 46.3771C122.394 45.3473 122.69 44.2642 122.69 43.1278V39.2926C122.512 39.5057 122.122 39.701 121.518 39.8786C120.926 40.0443 120.24 40.1922 119.458 40.3224C118.689 40.4408 117.937 40.5473 117.203 40.642C116.481 40.7249 115.895 40.7959 115.446 40.8551C114.357 40.9972 113.339 41.228 112.392 41.5476C111.457 41.8554 110.699 42.3229 110.119 42.9503C109.551 43.5658 109.267 44.4062 109.267 45.4716C109.267 46.9276 109.805 48.0284 110.882 48.7741C111.971 49.508 113.35 49.875 115.02 49.875ZM145.608 53.5682C143.051 53.5682 140.85 52.9645 139.003 51.7571C137.156 50.5497 135.736 48.8866 134.742 46.7678C133.747 44.6489 133.25 42.2282 133.25 39.5057C133.25 36.7358 133.759 34.2914 134.777 32.1726C135.807 30.0419 137.239 28.3788 139.074 27.1832C140.921 25.9759 143.075 25.3722 145.537 25.3722C147.455 25.3722 149.183 25.7273 150.722 26.4375C152.261 27.1477 153.521 28.142 154.504 29.4205C155.486 30.6989 156.096 32.1903 156.333 33.8949H152.142C151.823 32.652 151.112 31.5511 150.012 30.5923C148.923 29.6217 147.455 29.1364 145.608 29.1364C143.975 29.1364 142.542 29.5625 141.311 30.4148C140.092 31.2552 139.139 32.4448 138.453 33.9837C137.778 35.5107 137.441 37.304 137.441 39.3636C137.441 41.4706 137.772 43.3054 138.435 44.8679C139.11 46.4304 140.057 47.6437 141.276 48.5078C142.507 49.3719 143.951 49.804 145.608 49.804C146.697 49.804 147.686 49.6146 148.573 49.2358C149.461 48.857 150.213 48.3125 150.828 47.6023C151.444 46.892 151.882 46.0398 152.142 45.0455H156.333C156.096 46.6553 155.51 48.1054 154.575 49.3956C153.651 50.674 152.426 51.692 150.899 52.4496C149.384 53.1953 147.62 53.5682 145.608 53.5682ZM166.365 43.0568L166.294 37.8722H167.146L179.078 25.7273H184.262L171.549 38.5824H171.194L166.365 43.0568ZM162.458 53V16.6364H166.649V53H162.458ZM179.788 53L169.134 39.5057L172.117 36.5938L185.115 53H179.788Z" fill="black"/>
<path d="M48.475 8.72092C47.0458 7.29176 44.7417 7.29176 43.3125 8.72092L19.075 32.9584C17.9375 34.0959 17.9375 35.9334 19.075 37.0709L43.3125 61.3084C44.7417 62.7376 47.0458 62.7376 48.475 61.3084C49.9042 59.8793 49.9042 57.5751 48.475 56.1459L27.3583 35.0001L48.5041 13.8543C49.9041 12.4543 49.9042 10.1209 48.475 8.72092Z" fill="black"/>
</svg>
